<?xml version="1.0" encoding="UTF-8"?>
<!DOCTYPE svg PUBLIC "-//W3C//DTD SVG 1.1//EN" "http://www.w3.org/Graphics/SVG/1.1/DTD/svg11.dtd">
<!-- Creator: CorelDRAW 2017 -->
<svg xmlns="http://www.w3.org/2000/svg" xml:space="preserve" width="297mm" height="210mm" version="1.1" style="shape-rendering:geometricPrecision; text-rendering:geometricPrecision; image-rendering:optimizeQuality; fill-rule:evenodd; clip-rule:evenodd" fill = "#FECC00"
viewBox="0 0 29700 21000"
 xmlns:xlink="http://www.w3.org/1999/xlink">
 <!-- <defs>
  <style type="text/css">
   <![CDATA[
    .fil0 {fill:#2B2A29}
    .fil2 {fill:#FECC00}
    .fil1 {fill:#FECC00;fill-rule:nonzero}
   ]]>
  </style>
 </defs> -->
 <g id="Katman_x0020_1">
  <metadata id="CorelCorpID_0Corel-Layer"/>
  <g id="_2245700788864" >
   <path className="fil0" d="M4532.55 6877.3l20634.9 0c546.33,0 993.31,446.98 993.31,993.31l0 5258.78c0,546.32 -446.98,993.3 -993.31,993.3l-20634.9 0c-546.33,0 -993.3,-446.98 -993.3,-993.3l0 -5258.78c0,-546.33 446.97,-993.31 993.3,-993.31z" fill = "#000"/>
   <path className="fil1" d="M6276.49 8309.1l-1.06 1007.17c91.17,-158.74 225.24,-288.52 401.14,-389.34 151.24,-83.66 335.72,-125.51 553.47,-125.51 393.63,0 715.41,163.05 967.47,490.18 250.99,327.14 376.48,749.76 376.48,1269.96 0,519.12 -125.49,941.76 -376.48,1268.88 -125.49,159.8 -296.02,274.56 -509.49,345.38 -213.44,71.87 -424.73,107.24 -633.9,107.24 -402.21,0 -775.47,-105.11 -1118.7,-314.26 -343.24,-210.21 -514.85,-612.44 -514.85,-1207.74l0 -2879.9 427.96 0c117.99,0 217.73,41.81 302.47,125.49 83.66,84.72 125.49,184.46 125.49,302.45zm1428.71 2214.92c0,-302.47 -62.22,-537.36 -187.71,-705.76 -125.49,-175.9 -297.1,-263.87 -513.78,-263.87 -233.83,0 -414.02,83.66 -539.51,252.06 -125.49,175.92 -187.71,415.1 -187.71,717.57 0,351.8 59.01,608.17 175.92,767.97 124.42,175.92 300.32,263.85 525.57,263.85 233.83,0 414.02,-87.93 539.51,-263.85 125.49,-176.98 187.71,-432.23 187.71,-767.97zm1098.33 -1648.6l453.71 0c116.92,0 217.73,41.84 302.47,125.52 83.66,83.66 125.49,184.49 125.49,301.41l0 2916.36 -881.67 0 0 -3343.29zm0 -981.39l453.71 0c116.92,0 217.73,41.83 302.47,125.47 83.66,83.68 125.49,183.44 125.49,300.34l0 262.79 -881.67 0 0 -688.6z"/>
   <path className="fil1" d="M11093.5 11111.82l854.87 0c7.5,167.32 70.79,292.79 187.71,376.48 126.57,83.64 293.89,125.47 503.04,125.47 151.23,0 281.01,-28.95 389.35,-87.93 100.83,-59.01 151.24,-138.4 151.24,-238.14 0,-151.24 -175.92,-263.87 -528.8,-338.93 -151.22,-25.74 -263.85,-50.41 -340.01,-76.17 -445.12,-108.31 -742.24,-238.09 -893.46,-388.26 -168.4,-151.25 -252.06,-351.82 -252.06,-602.81 0,-318.56 121.2,-582.39 364.68,-791.59 252.06,-191.96 579.19,-288.52 981.42,-288.52 436.54,0 784.07,96.56 1043.63,289.62 243.48,209.15 373.26,481.6 389.36,817.32l-540.58 0c-158.75,0 -279.95,-71.87 -363.61,-215.61l0 0c-34.33,-34.33 -67.59,-67.55 -100.84,-101.88 -100.82,-76.16 -239.18,-113.7 -415.1,-113.7 -167.32,0 -292.81,24.66 -377.55,75.09 -75.06,50.38 -112.61,126.56 -112.61,227.38 0,134.09 217.74,246.7 654.28,338.95 50.4,17.16 95.47,30.01 133.01,37.55 37.54,8.55 72.93,12.84 106.18,12.84 429.04,109.4 726.14,234.91 894.54,377.56 159.82,151.22 239.2,352.89 239.2,603.88 0,368.95 -134.09,654.27 -403.31,855.92 -252.06,184.5 -628.54,276.72 -1131.58,276.72 -478.37,0 -834.48,-96.53 -1068.31,-289.6 -243.48,-193.06 -364.69,-474.09 -364.69,-844.12l0 -37.52z"/>
   <path className="fil1" d="M12658.96 13118.83l-425.82 0 0 -688.6 688.62 0 0 425.81c0,174.86 -87.95,262.79 -262.8,262.79z"/>
   <path className="fil1" d="M17791.33 12238.84l0 -3445.16c0,-301.41 79.37,-527.72 239.19,-678.96 151.23,-142.63 397.92,-213.43 742.22,-213.43 83.67,0 151.25,4.27 201.66,12.87 92.24,0 163.03,4.29 213.44,12.85l0 688.6 -226.31 0c-116.91,0 -201.65,17.17 -250.98,50.43 -41.83,34.33 -63.3,101.91 -63.3,203.8l0 228.47 540.59 0 0 188.76c0,126.55 -41.83,229.54 -125.49,308.9 -83.66,80.45 -180.19,120.12 -289.61,120.12l-125.49 0 0 2522.75 -855.92 0zm1873.82 -301.39c-175.92,-151.25 -301.41,-353.94 -377.55,-610.31 -75.09,-255.27 -112.63,-521.28 -112.63,-798.01 0,-226.33 31.1,-452.64 94.4,-678.93 62.19,-226.33 160.88,-414.04 294.95,-565.26 217.75,-250.99 498.75,-400.08 842,-446.22 344.3,-46.1 654.27,-19.3 931,81.53 317.49,125.47 552.38,344.3 703.62,654.27 142.65,275.68 213.45,598.5 213.45,967.49 0,268.14 -28.97,498.74 -87.95,690.74 -58.99,193.05 -134.07,360.4 -226.31,503.06 -209.18,276.72 -465.53,444.04 -766.92,503.03 -276.74,75.08 -554.53,81.53 -835.56,19.31 -281,-63.28 -505.18,-170.56 -672.5,-320.7zm1894.19 -3694.01l0 352.9 -566.32 0 0 -566.34 352.88 0c142.65,0 213.44,70.77 213.44,213.44zm-1139.08 0l0 352.9 -566.34 0 0 -566.34 352.88 0c142.66,0 213.46,70.77 213.46,213.44zm-153.38 1481.27c-175.92,193.03 -255.29,480.48 -238.12,861.27 16.08,380.76 87.95,646.77 213.44,797.99 50.41,67.61 138.36,123.38 263.85,169.48 125.5,46.12 253.14,50.43 382.92,12.89 129.78,-37.55 245.62,-131.92 346.46,-283.16 99.74,-150.17 154.45,-393.66 163.03,-728.32 0,-302.45 -48.27,-528.76 -144.8,-678.93 -96.53,-151.22 -207.02,-247.77 -332.51,-289.6 -125.49,-41.85 -252.06,-43.98 -377.55,-6.44 -125.5,38.6 -217.73,86.89 -276.72,144.82zm2124.81 2514.13l0 -1622.82c0,-327.16 48.27,-601.75 144.8,-823.77 96.53,-223.07 228.46,-401.15 396.86,-535.22 159.8,-125.47 346.44,-217.71 559.9,-276.72 213.44,-58.98 433.33,-87.97 659.63,-87.97 17.16,0 37.55,0 63.28,0 24.67,0 46.14,0 63.29,0l0 894.55 -289.6 0c-243.48,0 -423.67,58.98 -540.59,175.9 -116.91,118.01 -175.9,301.41 -175.9,553.49l0 1722.56 -881.67 0z"/>
   <path className="fil2" d="M15389.53 10353.95l229.56 981.98 48.31 8.25 75.34 -307.27 -2.37 -45.92 -90.63 -135.42 141.29 -208.45 3.67 4.95 3.68 -4.95 141.29 208.45 -90.63 135.42 -2.37 45.92 75.34 307.27 48.31 -8.25 229.56 -981.98 136.42 223.76 51.82 -18.84 847.76 254.38c-446.25,607.09 -928.7,1104.14 -1441.18,1507.12 -512.47,-402.98 -994.93,-900.03 -1441.16,-1507.12l847.75 -254.38 51.8 18.84 136.44 -223.76zm944.52 -847.52c-93.32,80.9 -300.92,137.16 -542.06,137.16 -241.15,0 -448.75,-56.26 -542.05,-137.16 141.78,-39.05 332.39,-63 542.05,-63 209.67,0 400.26,23.95 542.06,63zm-542.06 -329.1c328.4,0 594.62,104.4 594.62,233.14 0,18.6 -5.56,36.7 -16.08,54.03 -151.69,-48.16 -355.01,-77.57 -578.54,-77.57 -223.52,0 -426.86,29.41 -578.54,77.57 -10.51,-17.33 -16.07,-35.43 -16.07,-54.03 0,-128.74 266.22,-233.14 594.61,-233.14zm-592.99 93.55c-94.22,-40.8 -188.41,-81.63 -282.61,-122.46 -16.35,-22.76 -3.66,-47.82 15.27,-64.72 284.58,-254.49 572.83,-377.85 860.33,-375.09 287.49,-2.76 575.76,120.6 860.33,375.09 18.92,16.9 31.61,41.96 15.28,64.72 -94.2,40.83 -188.4,81.66 -282.61,122.46 -189.73,-106.75 -387.25,-161.2 -593,-160.65 -205.74,-0.55 -403.26,53.9 -592.99,160.65z"/>
  </g>
 </g>
</svg>
