<?xml version="1.0" encoding="UTF-8"?>
<!DOCTYPE svg PUBLIC "-//W3C//DTD SVG 1.1//EN" "http://www.w3.org/Graphics/SVG/1.1/DTD/svg11.dtd">
<!-- Creator: CorelDRAW 2017 -->
<svg xmlns="http://www.w3.org/2000/svg" xml:space="preserve" width="297mm" height="210mm" version="1.1" style="shape-rendering:geometricPrecision; text-rendering:geometricPrecision; image-rendering:optimizeQuality; fill-rule:evenodd; clip-rule:evenodd" fill = "#FECC00"
viewBox="0 0 29700 21000"
 xmlns:xlink="http://www.w3.org/1999/xlink">
 <!-- <defs>
  <style type="text/css">
   <![CDATA[
    .fil1 {fill:#FECC00}
    .fil0 {fill:#FECC00;fill-rule:nonzero}
   ]]>
  </style>
 </defs> -->
 <g id="Katman_x0020_1">
  <metadata id="CorelCorpID_0Corel-Layer"/>
  <path class="fil0" d="M6276.49 8309.13l-1.06 1007.17c91.17,-158.73 225.24,-288.51 401.14,-389.35 151.24,-83.68 335.72,-125.49 553.47,-125.49 393.63,0 715.41,163.02 967.47,490.18 250.99,327.15 376.48,749.72 376.48,1269.96 0,519.12 -125.49,941.72 -376.48,1268.85 -125.49,159.84 -296.02,274.6 -509.49,345.37 -213.44,71.87 -424.73,107.26 -633.9,107.26 -402.21,0 -775.47,-105.08 -1118.7,-314.24 -343.24,-210.23 -514.85,-612.48 -514.85,-1207.76l0 -2879.89 427.96 0c117.99,0 217.73,41.83 302.47,125.47 83.66,84.76 125.49,184.5 125.49,302.47zm1428.71 2214.93c0,-302.47 -62.22,-537.4 -187.71,-705.8 -125.49,-175.9 -297.1,-263.83 -513.78,-263.83 -233.83,0 -414.02,83.64 -539.51,252.06 -125.49,175.89 -187.71,415.1 -187.71,717.57 0,351.78 59.01,608.15 175.92,767.95 124.42,175.9 300.32,263.87 525.57,263.87 233.83,0 414.02,-87.97 539.51,-263.87 125.49,-176.96 187.71,-432.25 187.71,-767.95zm1098.33 -1648.59l453.71 0c116.92,0 217.73,41.83 302.47,125.47 83.66,83.7 125.49,184.5 125.49,301.41l0 2916.4 -881.67 0 0 -3343.28zm0 -981.44l453.71 0c116.92,0 217.73,41.83 302.47,125.51 83.66,83.65 125.49,183.43 125.49,300.34l0 262.75 -881.67 0 0 -688.6z"/>
  <path class="fil0" d="M11093.5 11111.84l854.87 0c7.5,167.31 70.79,292.82 187.71,376.46 126.57,83.68 293.89,125.51 503.04,125.51 151.23,0 281.01,-28.98 389.35,-87.97 100.83,-59 151.24,-138.36 151.24,-238.1 0,-151.24 -175.92,-263.87 -528.8,-338.95 -151.22,-25.73 -263.85,-50.43 -340.01,-76.14 -445.12,-108.36 -742.24,-238.14 -893.46,-388.31 -168.4,-151.2 -252.06,-351.8 -252.06,-602.76 0,-318.59 121.2,-582.44 364.68,-791.61 252.06,-191.98 579.19,-288.51 981.42,-288.51 436.54,0 784.07,96.53 1043.63,289.58 243.48,209.16 373.26,481.63 389.36,817.33l-540.58 0c-158.75,0 -279.95,-71.87 -363.61,-215.58l0 0c-34.33,-34.33 -67.59,-67.58 -100.84,-101.89 -100.82,-76.18 -239.18,-113.72 -415.1,-113.72 -167.32,0 -292.81,24.69 -377.55,75.08 -75.06,50.41 -112.61,126.57 -112.61,227.39 0,134.1 217.74,246.69 654.28,338.95 50.4,17.15 95.47,30.04 133.01,37.54 37.54,8.6 72.93,12.89 106.18,12.89 429.04,109.39 726.14,234.86 894.54,377.55 159.82,151.23 239.2,352.86 239.2,603.86 0,368.98 -134.09,654.29 -403.31,855.95 -252.06,184.45 -628.54,276.69 -1131.58,276.69 -478.37,0 -834.48,-96.53 -1068.31,-289.58 -243.48,-193.06 -364.69,-474.08 -364.69,-844.15l0 -37.51z"/>
  <path class="fil0" d="M12658.96 13118.85l-425.82 0 0 -688.6 688.62 0 0 425.81c0,174.82 -87.95,262.79 -262.8,262.79z"/>
  <path class="fil0" d="M17791.33 12238.86l0 -3445.19c0,-301.4 79.37,-527.68 239.19,-678.93 151.23,-142.67 397.92,-213.46 742.22,-213.46 83.67,0 151.25,4.31 201.66,12.87 92.24,0 163.03,4.28 213.44,12.88l0 688.6 -226.31 0c-116.91,0 -201.65,17.18 -250.98,50.43 -41.83,34.29 -63.3,101.89 -63.3,203.77l0 228.46 540.59 0 0 188.77c0,126.59 -41.83,229.54 -125.49,308.93 -83.66,80.45 -180.19,120.13 -289.61,120.13l-125.49 0 0 2522.74 -855.92 0zm1873.82 -301.39c-175.92,-151.24 -301.41,-353.97 -377.55,-610.3 -75.09,-255.32 -112.63,-521.32 -112.63,-798.02 0,-226.33 31.1,-452.64 94.4,-678.94 62.19,-226.33 160.88,-414.06 294.95,-565.29 217.75,-250.98 498.75,-400.07 842,-446.17 344.3,-46.14 654.27,-19.31 931,81.51 317.49,125.49 552.38,344.28 703.62,654.27 142.65,275.68 213.45,598.51 213.45,967.47 0,268.16 -28.97,498.77 -87.95,690.77 -58.99,193.06 -134.07,360.4 -226.31,503.03 -209.18,276.75 -465.53,444.08 -766.92,503.06 -276.74,75.09 -554.53,81.53 -835.56,19.31 -281,-63.31 -505.18,-170.55 -672.5,-320.7zm1894.19 -3694.05l0 352.92 -566.32 0 0 -566.36 352.88 0c142.65,0 213.44,70.82 213.44,213.44zm-1139.08 0l0 352.92 -566.34 0 0 -566.36 352.88 0c142.66,0 213.46,70.82 213.46,213.44zm-153.38 1481.27c-175.92,193.06 -255.29,480.53 -238.12,861.31 16.08,380.77 87.95,646.77 213.44,798 50.41,67.56 138.36,123.33 263.85,169.45 125.5,46.14 253.14,50.41 382.92,12.87 129.78,-37.54 245.62,-131.91 346.46,-283.16 99.74,-150.17 154.45,-393.61 163.03,-728.28 0,-302.49 -48.27,-528.79 -144.8,-678.96 -96.53,-151.23 -207.02,-247.77 -332.51,-289.59 -125.49,-41.83 -252.06,-43.96 -377.55,-6.42 -125.5,38.6 -217.73,86.85 -276.72,144.78zm2124.81 2514.17l0 -1622.86c0,-327.12 48.27,-601.72 144.8,-823.72 96.53,-223.12 228.46,-401.15 396.86,-535.22 159.8,-125.52 346.44,-217.76 559.9,-276.76 213.44,-58.99 433.33,-87.95 659.63,-87.95 17.16,0 37.55,0 63.28,0 24.67,0 46.14,0 63.29,0l0 894.56 -289.6 0c-243.48,0 -423.67,58.99 -540.59,175.9 -116.91,117.97 -175.9,301.41 -175.9,553.45l0 1722.6 -881.67 0z"/>
  <path class="fil1" d="M15389.53 10353.98l229.56 981.98 48.31 8.2 75.34 -307.24 -2.37 -45.93 -90.63 -135.4 141.29 -208.45 3.67 4.98 3.68 -4.98 141.29 208.45 -90.63 135.4 -2.37 45.93 75.34 307.24 48.31 -8.2 229.56 -981.98 136.42 223.76 51.82 -18.82 847.76 254.31c-446.25,607.13 -928.7,1104.17 -1441.18,1507.16 -512.47,-402.99 -994.93,-900.03 -1441.16,-1507.16l847.75 -254.31 51.8 18.82 136.44 -223.76zm944.52 -847.53c-93.32,80.86 -300.92,137.17 -542.06,137.17 -241.15,0 -448.75,-56.31 -542.05,-137.17 141.78,-39.03 332.39,-62.98 542.05,-62.98 209.67,0 400.26,23.95 542.06,62.98zm-542.06 -329.1c328.4,0 594.62,104.38 594.62,233.12 0,18.61 -5.56,36.7 -16.08,54.02 -151.69,-48.12 -355.01,-77.54 -578.54,-77.54 -223.52,0 -426.86,29.42 -578.54,77.54 -10.51,-17.32 -16.07,-35.41 -16.07,-54.02 0,-128.74 266.22,-233.12 594.61,-233.12zm-592.99 93.57c-94.22,-40.85 -188.41,-81.66 -282.61,-122.48 -16.35,-22.73 -3.66,-47.82 15.27,-64.76 284.58,-254.49 572.83,-377.81 860.33,-375.06 287.49,-2.75 575.76,120.57 860.33,375.06 18.92,16.94 31.61,42.03 15.28,64.76 -94.2,40.82 -188.4,81.63 -282.61,122.48 -189.73,-106.81 -387.25,-161.21 -593,-160.7 -205.74,-0.51 -403.26,53.89 -592.99,160.7z"/>
 </g>
</svg>
